<svg width="250" height="250" viewBox="0 0 250 250" fill="none" xmlns="http://www.w3.org/2000/svg">
<path d="M125 226.563C172.099 210.328 205.672 172.589 210.937 124.536C212.399 103.677 212.275 82.7367 210.568 61.8959C210.342 58.6109 208.9 55.528 206.523 53.2493C204.146 50.9706 201.005 49.6598 197.714 49.573C176.406 48.9167 151.641 45.3646 132.505 26.5157C130.506 24.5446 127.81 23.4396 125.003 23.4396C122.195 23.4396 119.5 24.5446 117.5 26.5157C98.3594 45.3646 73.5937 48.9167 52.2916 49.573C49.0001 49.6598 45.8591 50.9706 43.4821 53.2493C41.1052 55.528 39.6631 58.6109 39.4375 61.8959C37.7282 82.7365 37.6028 103.677 39.0625 124.536C44.3281 172.589 77.901 210.328 125 226.563Z" stroke="black" stroke-linecap="round" stroke-linejoin="round"/>
</svg>
