<svg width="250" height="250" viewBox="0 0 250 250" fill="none" xmlns="http://www.w3.org/2000/svg">
<path d="M210.938 28.6459H39.0625C36.2998 28.6459 33.6503 29.7433 31.6968 31.6968C29.7433 33.6503 28.6458 36.2999 28.6458 39.0625V210.938C28.6458 213.7 29.7433 216.35 31.6968 218.303C33.6503 220.257 36.2998 221.354 39.0625 221.354H210.938C213.7 221.354 216.35 220.257 218.303 218.303C220.257 216.35 221.354 213.7 221.354 210.938V39.0625C221.354 36.2999 220.257 33.6503 218.303 31.6968C216.35 29.7433 213.7 28.6459 210.938 28.6459V28.6459Z" stroke="black" stroke-linecap="round" stroke-linejoin="round"/>
<path d="M182.292 143.229C192.359 143.229 200.521 135.068 200.521 125C200.521 114.932 192.359 106.771 182.292 106.771C172.224 106.771 164.062 114.932 164.062 125C164.062 135.068 172.224 143.229 182.292 143.229Z" stroke="black" stroke-linecap="round" stroke-linejoin="round"/>
<path d="M49.4792 125H70.3125L91.1458 72.9166L122.396 177.083L143.229 125H164.062" stroke="black" stroke-linecap="round" stroke-linejoin="round"/>
</svg>
