<svg width="250" height="250" viewBox="0 0 250 250" fill="none" xmlns="http://www.w3.org/2000/svg">
<path d="M173.512 155.751C195.399 133.863 195.399 98.376 173.512 76.4883C151.624 54.6006 116.137 54.6006 94.2494 76.4883L45.0613 125.676C23.1736 147.564 23.1736 183.051 45.0613 204.939C66.9489 226.826 102.436 226.826 124.323 204.939L173.512 155.751Z" stroke="black" stroke-linecap="round" stroke-linejoin="round"/>
<path d="M133.385 126.615C138.908 126.615 143.385 122.137 143.385 116.615C143.385 111.092 138.908 106.615 133.385 106.615C127.863 106.615 123.385 111.092 123.385 116.615C123.385 122.137 127.863 126.615 133.385 126.615Z" stroke="black" stroke-linecap="round" stroke-linejoin="round"/>
<path d="M221.354 67.5625C217.748 58.8338 212.453 50.903 205.775 44.2247C199.097 37.5465 191.166 32.2524 182.437 28.6459M201.687 75.9219C199.173 69.751 195.458 64.141 190.758 59.4175C186.057 54.6941 180.466 50.9512 174.307 48.4063L201.687 75.9219Z" stroke="black" stroke-linecap="round" stroke-linejoin="round"/>
</svg>
