<svg width="283" height="278" viewBox="0 0 283 278" fill="none" xmlns="http://www.w3.org/2000/svg">
<g clip-path="url(#clip0_1_24)">
<path d="M192.83 100.996L193.404 95.2736L187.972 96.0799C178.639 97.5913 169.139 96.7779 160.245 93.7056C150.937 90.2852 140.831 89.7871 131.15 92.2717C126.04 93.4753 121.274 95.9951 117.285 99.6018C113.297 103.208 110.212 107.787 108.313 112.922C105.855 119.554 105.069 126.708 106.031 133.686C108.117 130.56 110.421 127.599 112.924 124.828C118.517 118.982 125.507 114.834 133.127 112.837C140.471 110.9 148.113 110.785 155.44 112.503C148.193 112.281 140.952 113.647 134.179 116.512C130.917 117.869 127.825 119.654 124.978 121.824C122.234 124.012 119.709 126.49 117.444 129.216C113.064 134.984 109.507 141.382 106.886 148.202C104.162 155.027 102.038 162.087 100.539 169.295L109.019 170.928C110.665 164.522 112.742 158.238 115.232 152.124C120.471 156.601 126.739 159.576 133.442 160.768C139.678 161.963 146.102 161.831 152.336 160.377C187.393 152.079 192.443 103.005 192.83 100.996Z" fill="#7EA16B"/>
<path d="M228.024 59.7135C201.905 30.9967 150.88 20.767 113.999 54.3121C95.7967 70.8675 87.0695 92.0377 88.1132 116.502C88.0637 116.811 88.0559 117.125 88.0897 117.436C86.2823 137.936 84.6283 140.393 79.7688 144.942C77.8496 146.747 77.2594 147.254 76.9297 147.524L75.7754 148.534C73.2477 150.685 69.0247 154.298 72.0986 160.796L102.394 213.528C102.635 213.946 102.955 214.312 103.337 214.606C103.719 214.899 104.155 215.115 104.621 215.24C105.086 215.366 105.571 215.398 106.049 215.336C106.527 215.273 106.988 215.118 107.406 214.877C107.823 214.637 108.189 214.316 108.483 213.934C108.777 213.552 108.993 213.116 109.118 212.651C109.243 212.186 109.276 211.7 109.213 211.222C109.151 210.744 108.995 210.283 108.755 209.866L78.5971 157.395C78.087 156.322 78.0445 156.231 80.5401 154.1L81.5918 153.173C81.5918 153.173 82.0646 152.843 84.7828 150.291C91.5777 143.922 93.5427 139.397 95.4165 117.715C95.4843 117.273 95.4704 116.821 95.3756 116.384C94.6163 93.7042 102.542 74.6518 118.936 59.7407C152.468 29.2419 198.846 38.5399 222.596 64.651C246.868 91.3375 251.662 137.407 217.685 168.311C196.091 187.952 174.667 188.314 159.325 186.496C158.906 186.327 158.459 186.238 158.007 186.236C135.985 186.061 131.295 187.589 124.312 193.751L123.753 194.26L123.558 194.427C123.131 194.786 122.848 194.934 122.766 195.018C122.606 194.778 122.446 194.536 122.287 194.294L106.932 166.649C106.698 166.227 106.383 165.856 106.005 165.556C105.628 165.257 105.195 165.034 104.731 164.902C104.268 164.769 103.782 164.729 103.304 164.785C102.825 164.84 102.361 164.988 101.94 165.223C101.518 165.457 101.147 165.772 100.847 166.149C100.548 166.527 100.325 166.96 100.193 167.423C100.06 167.887 100.021 168.372 100.076 168.851C100.131 169.33 100.28 169.793 100.514 170.215L115.698 197.51C115.861 197.907 117.441 201.41 121.116 202.234C122.719 202.59 125.145 202.497 127.96 200.314L128.23 200.098L128.777 199.62L128.913 199.486L129.168 199.264C134.128 194.881 136.721 193.456 157.285 193.578C157.368 193.593 157.455 193.612 157.538 193.616C182.872 197.029 204.166 190.527 222.623 173.739C259.998 139.745 254.721 89.0654 228.024 59.7135ZM87.6332 227.083C88.1924 227.7 88.9454 228.107 89.7677 228.238C90.59 228.368 91.4322 228.214 92.1549 227.801C92.5747 227.564 92.9436 227.247 93.2406 226.867C93.5375 226.488 93.7566 226.053 93.8852 225.589C94.0139 225.124 94.0496 224.639 93.9903 224.161C93.931 223.683 93.7779 223.221 93.5397 222.802L63.8873 170.417C63.3959 169.594 62.6021 168.996 61.6756 168.751C60.7491 168.506 59.7634 168.633 58.9294 169.105C58.0954 169.577 57.4793 170.357 57.2127 171.278C56.9462 172.198 57.0505 173.187 57.5033 174.032L87.1558 226.416C87.2884 226.656 87.4487 226.88 87.6332 227.083ZM50.8473 187.227C50.6196 186.79 50.306 186.402 49.9252 186.088C49.5444 185.775 49.1042 185.541 48.6309 185.401C48.1577 185.261 47.6611 185.219 47.171 185.275C46.6808 185.332 46.2071 185.487 45.7781 185.731C45.3492 185.975 44.9739 186.303 44.6747 186.695C44.3754 187.087 44.1584 187.536 44.0366 188.014C43.9147 188.492 43.8906 188.99 43.9656 189.478C44.0407 189.966 44.2133 190.433 44.4732 190.853L68.652 233.337C68.8796 233.774 69.1932 234.162 69.574 234.476C69.9549 234.789 70.3951 235.023 70.8683 235.163C71.3415 235.303 71.8381 235.345 72.3283 235.289C72.8185 235.232 73.2922 235.077 73.7211 234.833C74.15 234.589 74.5253 234.261 74.8246 233.869C75.1238 233.477 75.3408 233.028 75.4627 232.55C75.5845 232.072 75.6086 231.574 75.5336 231.086C75.4586 230.599 75.286 230.131 75.0261 229.712L50.8473 187.227Z" fill="white"/>
</g>
<defs>
<clipPath id="clip0_1_24">
<rect width="161.437" height="234.818" fill="white" transform="translate(173.712) rotate(47.7121)"/>
</clipPath>
</defs>
</svg>
